# xmcd
#
# Track frame offsets:
# 150
# 19557
# 32082
# 50945
# 70460
# 84095
# 102462
# 120397
# 139762
# 152580
# 169442
# 182900
# 193892
# 208652
# 223177
# 239592
# 252745
# 263552
#
# Disc length: 3622 seconds
#
#
# Revision: 0
# Processed by: cddbd v1.5.1PL2 Copyright (c) Steve Scherf et al.
# Submitted via: FreeRIP 2.944 
#
DISCID=130e2412
DTITLE=Various Artist - The Old Style Love Song 5
DYEAR=1900
DGENRE=Oldies
TTITLE0=he ain't heavy he is my brother
TTITLE1=love me tender
TTITLE2=and i love you so
TTITLE3=reflections of my life
TTITLE4=top of the world
TTITLE5=let it be
TTITLE6=yesterday once more
TTITLE7=how can i tell her
TTITLE8=love song
TTITLE9=do that to me one more time
TTITLE10=san francisco
TTITLE11=massachusetts
TTITLE12=song sung blue
TTITLE13=donna donna
TTITLE14=greensleeves
TTITLE15=i'll never fall in love again
TTITLE16=one way ticket
TTITLE17=goodbye
EXTD=
EXTT0=
EXTT1=
EXTT2=
EXTT3=
EXTT4=
EXTT5=
EXTT6=
EXTT7=
EXTT8=
EXTT9=
EXTT10=
EXTT11=
EXTT12=
EXTT13=
EXTT14=
EXTT15=
EXTT16=
EXTT17=
PLAYORDER=
